<?xml version="1.0" encoding="utf-8"?>
<!-- Generator: Adobe Illustrator 21.0.2, SVG Export Plug-In . SVG Version: 6.00 Build 0)  -->
<svg version="1.1" id="Layer_1" xmlns="http://www.w3.org/2000/svg" xmlns:xlink="http://www.w3.org/1999/xlink" x="0px" y="0px"
	 viewBox="0 0 100 100" style="enable-background:new 0 0 100 100;" xml:space="preserve">
<g>
	<path d="M94.8,24L85.9,8.1C84.8,6.2,82.8,5,80.7,5H19.3c-2.2,0-4.2,1.2-5.2,3.1L5.2,24C5.1,24.3,5,24.7,5,25v64c0,3.3,2.7,6,6,6h78
		c3.3,0,6-2.7,6-6V25C95,24.7,94.9,24.3,94.8,24z M74,9h6.7c0.7,0,1.4,0.4,1.7,1l7.2,13H74V9z M52,9h18v14H52V9z M52,27h18v1
		c0,5-4,9-9,9s-9-4-9-9V27z M30,9h18v14H30V9z M30,27h18v1c0,5-4,9-9,9s-9-4-9-9V27z M28.1,35.1C30.4,38.6,34.4,41,39,41
		c4.6,0,8.7-2.4,11-6.1c2.3,3.7,6.4,6.1,11,6.1c4.6,0,8.6-2.4,10.9-5.9c2,3.1,5.3,5.4,9.1,5.8V79c0,1.1-0.9,2-2,2H21
		c-1.1,0-2-0.9-2-2V40.9C22.8,40.4,26.2,38.2,28.1,35.1z M17.6,10c0.4-0.6,1-1,1.7-1H26v14H10.4L17.6,10z M9,27h17v1.5
		c0,4.7-3.8,8.5-8.5,8.5S9,33.2,9,28.5V27z M91,89c0,1.1-0.9,2-2,2H11c-1.1,0-2-0.9-2-2V37.6c1.7,1.5,3.7,2.6,6,3.1V79
		c0,3.3,2.7,6,6,6h58c3.3,0,6-2.7,6-6V40.8c2.3-0.5,4.3-1.6,6-3.1V89z M91,28.5c0,4.7-3.8,8.5-8.5,8.5S74,33.2,74,28.5V27h17V28.5z"
		/>
	<path d="M56,75c0.5,0,1.1-0.2,1.5-0.7l11-12c0.8-0.8,0.7-2.1-0.1-2.8c-0.8-0.8-2.1-0.7-2.8,0.1l-11,12c-0.8,0.8-0.7,2.1,0.1,2.8
		C55,74.8,55.5,75,56,75z"/>
	<path d="M66.5,74.8c0.4,0.3,0.8,0.5,1.3,0.5c0.6,0,1.1-0.2,1.5-0.7l5.2-6.2c0.7-0.8,0.6-2.1-0.2-2.8c-0.8-0.7-2.1-0.6-2.8,0.2
		L66.2,72C65.5,72.8,65.6,74.1,66.5,74.8z"/>
</g>
</svg>
